<svg id="Layer_1" data-name="Layer 1" xmlns="http://www.w3.org/2000/svg" viewBox="0 0 309.17 309.17"><defs><style>.cls-1{fill:#75aadb;}.cls-2{fill:#fff;}</style></defs><title>ctl-avatar</title><rect class="cls-1" width="309.17" height="309.17"/><path class="cls-2" d="M214.07,438.31c-12.54-11.25-15.65-26-15.65-38.27,0-8.67,3-23.79,14.49-35.3,7.75-7.76,19.52-13.84,39.43-13.84a111.18,111.18,0,0,1,18.75,1.55,109.66,109.66,0,0,0,13.19,1.94c1.43.13,1.68.65,1.68,1.42,0,1-.38,2.59-.64,7.25-.26,4.26-.26,11.37-.39,13.31s-.39,2.72-1.17,2.72-1-.91-1-2.72c0-5-2.06-10.34-5.42-13.19-4.54-3.88-14.49-7.37-25.87-7.37-17.19,0-25.21,5-29.74,9.44-9.44,9.06-11.64,20.56-11.64,33.75,0,24.7,19,47.33,46.69,47.33,9.69,0,17.32-1.17,22.49-6.47C282,437,283.64,431.32,284,429c.25-1.42.51-1.94,1.29-1.94s.9.9.9,1.94a134.75,134.75,0,0,1-2.84,16.55c-.78,2.46-1,2.72-3.36,3.75-5.17,2.07-15,3-23.27,3C237.34,452.28,224.28,447.49,214.07,438.31Z" transform="translate(-171.45 -247)"/><path class="cls-2" d="M344.19,413c0,12.42,0,22.64.65,28.06.39,3.75,1.17,6.6,5.05,7.12a55.26,55.26,0,0,0,5.81.51c.78,0,1,.39,1,.78,0,.65-.64,1-2.07,1-7.11,0-15.25-.39-15.9-.39s-8.79.39-12.67.39c-1.42,0-2.07-.26-2.07-1,0-.39.26-.78,1-.78a19.75,19.75,0,0,0,3.87-.51c2.59-.52,3.24-3.37,3.75-7.12.65-5.42.65-15.64.65-28.06V358.27l-19.13.26c-8,.13-11.13,1-13.19,4.14a22,22,0,0,0-2.2,4c-.39,1-.78,1.3-1.3,1.3s-.64-.39-.64-1.16c0-1.3,2.59-12.42,2.84-13.45.26-.78.78-2.46,1.3-2.46.9,0,2.19,1.3,5.69,1.55,3.75.39,8.66.65,10.21.65h48.48a51.53,51.53,0,0,0,9.19-.65c1.94-.25,3.1-.65,3.62-.65s.65.78.65,1.56c0,3.88-.4,12.8-.4,14.22,0,1.17-.38,1.68-.9,1.68s-.9-.38-1-2.19l-.13-1.43c-.39-3.88-3.49-6.85-15.9-7.11l-16.3-.26Z" transform="translate(-171.45 -247)"/><path class="cls-2" d="M414.32,413.22c0,19,.53,27.29,2.85,29.62,2.07,2.07,5.43,3,15.51,3,6.86,0,12.55-.13,15.65-3.88a17.93,17.93,0,0,0,3.36-7.76c.13-1,.4-1.68,1.17-1.68s.78.52.78,1.94a82.27,82.27,0,0,1-1.95,12.94c-.9,3-1.28,3.48-8.15,3.48-9.3,0-16-.26-21.45-.38s-9.44-.39-13.19-.39c-.52,0-2.72.13-5.3.13s-5.43.26-7.38.26c-1.41,0-2.06-.26-2.06-1,0-.39.25-.78,1-.78a20,20,0,0,0,3.88-.51c2.59-.52,3.24-3.37,3.75-7.12.64-5.42.64-15.64.64-28.06V390.21c0-20.18,0-23.79-.25-27.93-.27-4.4-1.3-6.47-5.57-7.37a23.9,23.9,0,0,0-4.39-.39c-.52,0-1-.26-1-.77,0-.78.65-1,2.08-1,5.81,0,14,.39,14.61.39s10.08-.39,14-.39c1.42,0,2.07.26,2.07,1,0,.51-.52.77-1,.77a30,30,0,0,0-4.27.39c-3.75.65-4.78,2.84-5.05,7.37-.26,4.14-.26,7.75-.26,27.93Z" transform="translate(-171.45 -247)"/></svg>